#!OML:ASF I:\Actors\actors\Patient Classification 2\Patient 1\Session 1\actor1.ASF
:FULLY-SPECIFIED
:DEGREES
618
root -0.649272 17.6416 5.8031 2.05987 -2.51542 -1.40675
lowerback 22.4078 -0.549157 0.172568
upperback 4.42645 -0.561544 1.3649
thorax -7.6425 -0.26469 1.54755
lowerneck -19.9782 5.91591 10.898
upperneck 27.2949 6.93099 -7.07601
head 13.1458 3.2461 -3.39657
rclavicle 9.14409e-015 9.34288e-015
rhumerus -68.5764 58.0419 -99.9568
rradius 116.701
rwrist -42.3481
rhand 34.1127 -55.0502
rfingers 7.12502
rthumb 57.3615 -71.331
lclavicle 9.14409e-015 9.34288e-015
lhumerus -86.9871 -48.2663 102.23
lradius 129.381
lwrist 59.0577
lhand 33.2712 -10.455
lfingers 7.12502
lthumb 56.6214 6.4421
rfemur -15.0156 -0.650298 14.4547
rtibia 42.4997
rfoot -29.1502 -1.86403
rtoes -28.9966
lfemur -21.5693 5.69269 -12.1124
ltibia 51.4048
lfoot -26.5739 3.3572
ltoes -57.4072
619
root -0.657317 17.6381 5.8044 1.95683 -1.99048 -1.33969
lowerback 22.2978 -0.484938 0.1817
upperback 4.4552 -0.486761 1.23943
thorax -7.5564 -0.229933 1.38226
lowerneck -19.903 5.85484 11.147
upperneck 27.6001 6.7898 -7.09627
head 13.2533 3.21275 -3.48071
rclavicle -1.88845e-015 -3.27995e-015
rhumerus -68.3344 55.4356 -99.2844
rradius 116.862
rwrist -41.7974
rhand 33.876 -55.1658
rfingers 7.12502
rthumb 57.1538 -71.623
lclavicle -1.88845e-015 -3.27995e-015
lhumerus -87.3086 -47.3525 101.774
lradius 129.752
lwrist 58.5966
lhand 33.7154 -10.3781
lfingers 7.12502
lthumb 57.0126 6.19735
rfemur -14.7822 -1.03672 14.4072
rtibia 42.4802
rfoot -29.329 -1.97761
rtoes -29.1328
lfemur -21.6168 5.46091 -12.1465
ltibia 51.4647
lfoot -26.414 3.16522
ltoes -57.3261
620
root -0.683736 17.6421 5.82202 1.70123 -1.03187 -1.35218
lowerback 22.1528 -0.638513 -0.101789
upperback 4.64201 -0.73799 1.39853
thorax -7.26418 -0.345105 1.78271
lowerneck -19.7912 5.91829 11.093
upperneck 27.8457 6.96606 -7.2118
head 13.3549 3.27324 -3.49297
rclavicle 7.7526e-015 -4.27387e-015
rhumerus -67.8258 53.141 -98.0968
rradius 117.203
rwrist -41.6274
rhand 33.7059 -55.8774
rfingers 7.12502
rthumb 57.0043 -72.4598
lclavicle 7.7526e-015 -4.27387e-015
lhumerus -87.237 -45.3551 101.111
lradius 130.177
lwrist 57.9444
lhand 34.5231 -8.90164
lfingers 7.12502
lthumb 57.721 7.06751
rfemur -14.1472 -1.56432 14.573
rtibia 42.4193
rfoot -29.8089 -2.20004
rtoes -28.8421
lfemur -21.4681 4.99467 -11.9612
ltibia 51.4984
lfoot -26.298 2.69746
ltoes -57.3051
621
root -0.692701 17.6381 5.82797 1.67365 -0.472206 -1.44634
lowerback 22.0214 -0.696255 -0.072431
upperback 4.63108 -0.801429 1.4479
thorax -7.20508 -0.375536 1.8346
lowerneck -19.4131 5.88349 10.9783
upperneck 28.1956 6.97981 -7.08914
head 13.4128 3.294 -3.43572
rclavicle -3.926e-015 1.09332e-015
rhumerus -67.8142 50.2999 -97.3168
rradius 117.562
rwrist -41.5005
rhand 33.1051 -56.3717
rfingers 7.12502
rthumb 56.4748 -73.387
lclavicle -3.926e-015 1.09332e-015
lhumerus -87.5598 -43.0891 100.68
lradius 130.613
lwrist 57.1098
lhand 34.6842 -8.03781
lfingers 7.12502
lthumb 57.8618 7.807
rfemur -13.9467 -1.89183 14.7265
rtibia 42.3435
rfoot -30.0287 -2.2667
rtoes -28.3258
lfemur -21.6153 4.80399 -11.7959
ltibia 51.6057
lfoot -26.1701 2.32161
ltoes -57.2236
622
root -0.688887 17.6324 5.82699 1.84857 -0.232062 -1.59063
lowerback 21.8581 -0.662067 0.178577
upperback 4.42931 -0.702397 1.40579
thorax -7.34697 -0.330987 1.61786
lowerneck -18.5993 5.73794 10.8348
upperneck 28.5263 6.85564 -6.86372
head 13.349 3.27403 -3.36346
rclavicle -2.5345e-015 1.05356e-014
rhumerus -68.0256 46.7938 -96.6166
rradius 117.842
rwrist -40.758
rhand 33.1166 -56.6623
rfingers 7.12502
rthumb 56.485 -73.6694
lclavicle -2.5345e-015 1.05356e-014
lhumerus -88.0554 -40.5758 100.2
lradius 131.049
lwrist 56.3224
lhand 34.9513 -7.63579
lfingers 7.12502
lthumb 58.0947 8.0003
rfemur -14.0794 -2.12326 14.8616
rtibia 42.204
rfoot -30.0007 -2.24188
rtoes -28.0736
lfemur -21.9846 4.85968 -11.6602
ltibia 51.726
lfoot -25.9825 2.06461
ltoes -57.1516
623
root -0.689378 17.6319 5.82959 2.04105 0.027628 -1.73325
lowerback 21.7984 -0.608944 0.454881
upperback 4.08698 -0.573043 1.32905
thorax -7.69728 -0.272458 1.34438
lowerneck -17.3733 5.48906 10.6743
upperneck 28.8315 6.62915 -6.64008
head 13.1748 3.21501 -3.31254
rclavicle -3.72721e-015 -2.78299e-015
rhumerus -68.1777 42.6025 -95.6254
rradius 117.99
rwrist -39.2754
rhand 34.2024 -57.1058
rfingers 7.12502
rthumb 57.4402 -73.3191
lclavicle -3.72721e-015 -2.78299e-015
lhumerus -88.5342 -37.796 99.4891
lradius 131.476
lwrist 55.5258
lhand 35.2116 -7.16969
lfingers 7.12502
lthumb 58.3214 8.25982
rfemur -14.2044 -2.34546 15.0198
rtibia 42.0923
rfoot -30.0727 -2.19082
rtoes -27.8337
lfemur -22.3823 4.88285 -11.5112
ltibia 51.9199
lfoot -25.815 1.82386
ltoes -57.119
624
root -0.715062 17.6406 5.85177 2.08247 0.993687 -1.84347
lowerback 21.6667 -0.684229 0.660421
upperback 3.79392 -0.625057 1.27137
thorax -7.95093 -0.300522 1.1803
lowerneck -15.7956 5.10883 10.4882
upperneck 28.9242 6.20262 -6.28737
head 12.8117 3.08541 -3.23932
rclavicle 9.56651e-015 -3.8763e-015
rhumerus -68.2353 37.7202 -94.2037
rradius 118.195
rwrist -37.8284
rhand 34.7665 -57.3128
rfingers 7.12502
rthumb 57.9336 -73.0936
lclavicle 9.56651e-015 -3.8763e-015
lhumerus -88.8194 -34.9062 98.5424
lradius 131.893
lwrist 54.3492
lhand 34.9008 -6.94652
lfingers 7.12502
lthumb 58.0507 8.72928
rfemur -13.8434 -2.83446 15.3082
rtibia 41.9239
rfoot -30.5583 -2.31928
rtoes -27.1423
lfemur -22.6128 4.36367 -11.2346
ltibia 52.058
lfoot -25.5661 1.3597
ltoes -57.038
625
root -0.707644 17.6384 5.84696 2.44925 1.32208 -1.98199
lowerback 21.4417 -0.938782 0.466134
upperback 3.92927 -0.964721 1.72962
thorax -7.66659 -0.455032 1.87725
lowerneck -15.3868 5.29096 9.18273
upperneck 28.6338 6.83678 -6.16168
head 12.6069 3.24379 -2.86445
rclavicle -1.83876e-014 5.76476e-015
rhumerus -66.1496 34.5773 -90.5344
rradius 119.021
rwrist -38.6161
rhand 33.9397 -59.8866
rfingers 7.12502
rthumb 57.2097 -76.2965
lclavicle -1.83876e-014 5.76476e-015
lhumerus -87.3239 -29.741 97.1196
lradius 132.143
lwrist 52.4121
lhand 34.3522 -7.49765
lfingers 7.12502
lthumb 57.5714 8.60217
rfemur -14.184 -3.13061 15.4458
rtibia 41.773
rfoot -30.4943 -2.32826
rtoes -26.6836
lfemur -23.2785 4.11965 -11.1398
ltibia 52.2496
lfoot -25.2564 1.31214
ltoes -56.8726
626
root -0.715689 17.6457 5.85144 2.64466 1.7883 -2.10503
lowerback 21.4695 -0.787167 0.734479
upperback 3.69805 -0.712533 1.60333
thorax -7.94669 -0.339546 1.52161
lowerneck -13.3553 4.8628 9.34662
upperneck 27.6926 6.30512 -6.12436
head 11.7661 3.06748 -2.98012
rclavicle -3.52843e-015 1.65985e-014
rhumerus -65.8053 29.0244 -88.6659
rradius 119.635
rwrist -38.1367
rhand 33.5431 -60.6345
rfingers 7.12502
rthumb 56.861 -77.3357
lclavicle -3.52843e-015 1.65985e-014
lhumerus -86.9966 -26.6905 96.0277
lradius 132.433
lwrist 50.6697
lhand 33.522 -8.735
lfingers 7.12502
lthumb 56.8424 7.98152
rfemur -14.22 -3.40333 15.6593
rtibia 41.5826
rfoot -30.5792 -2.55975
rtoes -26.7053
lfemur -23.6852 3.87684 -10.9727
ltibia 52.3531
lfoot -24.9619 1.1331
ltoes -56.7723
627
root -0.72278 17.6567 5.85388 2.87011 2.2345 -2.1653
lowerback 21.5013 -0.821253 0.666208
upperback 3.47783 -0.754613 1.74078
thorax -8.20176 -0.354061 1.7267
lowerneck -10.6866 4.61281 8.73103
upperneck 26.0853 6.21632 -5.99294
head 10.5816 3.02625 -2.86107
rclavicle 7.45443e-015 3.97569e-015
rhumerus -65.3912 24.541 -86.8083
rradius 120.232
rwrist -37.4936
rhand 33.5589 -60.9086
rfingers 7.12502
rthumb 56.8749 -77.5983
lclavicle 7.45443e-015 3.97569e-015
lhumerus -86.4932 -22.7817 95.1681
lradius 132.692
lwrist 48.9799
lhand 33.1428 -9.32831
lfingers 7.12502
lthumb 56.5081 7.66023
rfemur -14.3066 -3.65892 15.8014
rtibia 41.416
rfoot -30.6658 -2.82046
rtoes -27.0062
lfemur -24.129 3.77536 -10.8885
ltibia 52.4597
lfoot -24.6754 0.94081
ltoes -56.7821
628
root -0.730164 17.669 5.85439 3.10356 2.64739 -2.25048
lowerback 21.4709 -0.812682 0.712814
upperback 3.36365 -0.722232 1.8294
thorax -8.31132 -0.337487 1.78916
lowerneck -7.77244 4.33429 8.00204
upperneck 23.8716 6.0205 -5.70391
head 9.17181 2.94953 -2.6886
rclavicle 1.1281e-014 1.98785e-015
rhumerus -64.9337 19.7565 -84.9761
rradius 121.22
rwrist -36.6898
rhand 33.9558 -61.9874
rfingers 7.12502
rthumb 57.2239 -78.3853
lclavicle 1.1281e-014 1.98785e-015
lhumerus -85.5725 -19.5159 94.2241
lradius 132.954
lwrist 47.6083
lhand 33.3183 -8.64403
lfingers 7.12502
lthumb 56.6629 8.21939
rfemur -14.3828 -3.87397 15.9675
rtibia 41.1944
rfoot -30.7226 -3.04049
rtoes -27.0226
lfemur -24.5646 3.75745 -10.7807
ltibia 52.5286
lfoot -24.3741 0.774312
ltoes -56.7928
629
root -0.73525 17.6804 5.85428 3.30737 3.00142 -2.33652
lowerback 21.5318 -0.767896 0.811938
upperback 3.28613 -0.632589 1.88253
thorax -8.43193 -0.295687 1.768
lowerneck -4.78199 4.09502 7.2691
upperneck 21.337 5.82184 -5.36421
head 7.70911 2.87843 -2.51189
rclavicle 1.70458e-014 -1.76918e-014
rhumerus -64.2643 16.7487 -83.6108
rradius 121.419
rwrist -36.1577
rhand 33.5566 -61.9612
rfingers 7.12502
rthumb 56.8729 -78.6526
lclavicle 1.70458e-014 -1.76918e-014
lhumerus -84.2653 -16.9276 93.1931
lradius 133.128
lwrist 46.4227
lhand 33.3303 -8.22665
lfingers 7.12502
lthumb 56.6735 8.62816
rfemur -14.4243 -4.04332 16.1217
rtibia 40.9546
rfoot -30.7585 -3.17897
rtoes -26.7479
lfemur -24.9598 3.65292 -10.6857
ltibia 52.6196
lfoot -24.1167 0.751464
ltoes -56.7055
630
root -0.737607 17.6915 5.85169 3.45339 3.27521 -2.39927
lowerback 21.6483 -0.673503 0.938692
upperback 3.28364 -0.478925 1.86153
thorax -8.50181 -0.225869 1.63129
lowerneck -1.9812 3.8841 6.87993
upperneck 18.7564 5.62715 -5.25569
head 6.34704 2.81257 -2.47579
rclavicle -5.26779e-015 -4.37326e-015
rhumerus -63.7238 13.7216 -82.3441
rradius 121.831
rwrist -35.1123
rhand 33.804 -62.2288
rfingers 7.12502
rthumb 57.0905 -78.7391
lclavicle -5.26779e-015 -4.37326e-015
lhumerus -82.5581 -15.1517 91.9806
lradius 133.139
lwrist 45.4907
lhand 33.7124 -8.04047
lfingers 7.12502
lthumb 57.01 8.53718
rfemur -14.4142 -4.12899 16.2386
rtibia 40.7068
rfoot -30.772 -3.36441
rtoes -26.7673
lfemur -25.2923 3.48363 -10.6256
ltibia 52.7434
lfoot -23.8249 0.835563
ltoes -56.6829
